<svg xmlns="http://www.w3.org/2000/svg" viewBox="0 0 512 512">
  <defs>
    <linearGradient id="g" x1="0" y1="0" x2="1" y2="1">
      <stop offset="0%" stop-color="#0f766e"/>
      <stop offset="100%" stop-color="#14b8a6"/>
    </linearGradient>
  </defs>
  <rect width="512" height="512" rx="96" fill="url(#g)"/>
  <path d="M112 352 V176 c0-16 12-28 28-28 H240 c10 0 18 4 24 10 c6-6 14-10 24-10 h100 c16 0 28 12 28 28 v176" fill="none" stroke="#fff" stroke-width="22" stroke-linecap="round" stroke-linejoin="round"/>
  <path d="M256 156 V352" stroke="#fff" stroke-width="18" stroke-linecap="round"/>
  <path d="M256 224 c-24-40-64-48-80-32 c16 32 48 48 80 56 c32-8 64-24 80-56 c-16-16-56-8-80 32z" fill="#ccfbf1"/>
  <circle cx="256" cy="208" r="18" fill="#fff"/>
</svg>
